<svg xmlns="http://www.w3.org/2000/svg" viewBox="0 0 64 64">
  <defs>
    <linearGradient id="bread" x1="0%" y1="0%" x2="100%" y2="100%">
      <stop offset="0%" style="stop-color:#4a4a4a"/>
      <stop offset="100%" style="stop-color:#2d2d2d"/>
    </linearGradient>
  </defs>
  <!-- Bread/Oven shape -->
  <path d="M32 6 C16 6 8 16 8 28 C8 40 12 52 32 58 C52 52 56 40 56 28 C56 16 48 6 32 6" fill="url(#bread)"/>
  <!-- Wheat grain -->
  <g fill="#f5f0e6">
    <!-- Center stem -->
    <ellipse cx="32" cy="36" rx="3" ry="8"/>
    <!-- Left grains -->
    <ellipse cx="26" cy="28" rx="4" ry="7" transform="rotate(-20 26 28)"/>
    <ellipse cx="24" cy="38" rx="3.5" ry="6" transform="rotate(-25 24 38)"/>
    <!-- Right grains -->
    <ellipse cx="38" cy="28" rx="4" ry="7" transform="rotate(20 38 28)"/>
    <ellipse cx="40" cy="38" rx="3.5" ry="6" transform="rotate(25 40 38)"/>
    <!-- Top grain -->
    <ellipse cx="32" cy="20" rx="3" ry="6"/>
  </g>
</svg>