<svg xmlns="http://www.w3.org/2000/svg" viewBox="0 0 64 64">
  <!-- Flour Sack Shape - Two parts like the reference -->
  <!-- Top cinched part -->
  <path d="M22 8 Q26 4 32 4 Q38 4 42 8 Q44 12 42 14 L22 14 Q20 12 22 8" fill="#2d2d2d"/>
  <!-- Main bag body -->
  <path d="M18 14 L46 14 Q50 18 50 26 L50 48 Q50 56 42 58 L22 58 Q14 56 14 48 L14 26 Q14 18 18 14" fill="#2d2d2d"/>
  
  <!-- Wheat Stalk - Angled from bottom-left to top-right -->
  <g fill="#f5f0e6">
    <!-- Main stem -->
    <path d="M24 52 L38 22" stroke="#f5f0e6" stroke-width="2" stroke-linecap="round" fill="none"/>
    
    <!-- Wheat grains - left side -->
    <ellipse cx="26" cy="46" rx="3" ry="5" transform="rotate(-35 26 46)"/>
    <ellipse cx="29" cy="40" rx="3" ry="5" transform="rotate(-35 29 40)"/>
    <ellipse cx="32" cy="34" rx="3" ry="5" transform="rotate(-35 32 34)"/>
    <ellipse cx="35" cy="28" rx="2.5" ry="4" transform="rotate(-35 35 28)"/>
    
    <!-- Wheat grains - right side -->
    <ellipse cx="30" cy="44" rx="3" ry="5" transform="rotate(25 30 44)"/>
    <ellipse cx="33" cy="38" rx="3" ry="5" transform="rotate(25 33 38)"/>
    <ellipse cx="36" cy="32" rx="3" ry="5" transform="rotate(25 36 32)"/>
    <ellipse cx="38" cy="26" rx="2.5" ry="4" transform="rotate(25 38 26)"/>
    
    <!-- Top grain -->
    <ellipse cx="38" cy="23" rx="2" ry="3.5" transform="rotate(-10 38 23)"/>
  </g>
</svg>